<svg id="Calque_1" data-name="Calque 1" xmlns="http://www.w3.org/2000/svg" xmlns:xlink="http://www.w3.org/1999/xlink" viewBox="0 0 841.89 415.06"><defs><style>.cls-1{fill:url(#Dégradé_sans_nom_2);}.cls-2{fill:url(#Dégradé_sans_nom_2-2);}.cls-3{fill:url(#Dégradé_sans_nom_2-3);}.cls-4{fill:url(#Dégradé_sans_nom_2-4);}.cls-5{fill:url(#Dégradé_sans_nom_2-5);}.cls-6{fill:url(#Dégradé_sans_nom_2-6);}.cls-7{fill:url(#Dégradé_sans_nom_2-7);}.cls-8{fill:url(#Dégradé_sans_nom_2-8);}.cls-9{fill:url(#Dégradé_sans_nom_2-9);}.cls-10{fill:url(#Dégradé_sans_nom_2-10);}.cls-11{fill:url(#Dégradé_sans_nom_2-11);}.cls-12{fill:url(#Dégradé_sans_nom_2-12);}.cls-13{fill:url(#Dégradé_sans_nom_2-13);}.cls-14{fill:url(#Dégradé_sans_nom_2-14);}.cls-15{fill:url(#Dégradé_sans_nom_2-15);}.cls-16{fill:none;stroke:#fff;stroke-linecap:square;stroke-miterlimit:10;stroke-width:5px;}</style><linearGradient id="Dégradé_sans_nom_2" x1="228.91" y1="169.62" x2="612.98" y2="169.62" gradientUnits="userSpaceOnUse"><stop offset="0" stop-color="#15ff65"/><stop offset="1" stop-color="aqua"/></linearGradient><linearGradient id="Dégradé_sans_nom_2-2" x1="220.3" y1="280.42" x2="639.4" y2="211.95" xlink:href="#Dégradé_sans_nom_2"/><linearGradient id="Dégradé_sans_nom_2-3" x1="221.12" y1="285.45" x2="640.22" y2="216.98" xlink:href="#Dégradé_sans_nom_2"/><linearGradient id="Dégradé_sans_nom_2-4" x1="221.68" y1="288.85" x2="640.78" y2="220.39" xlink:href="#Dégradé_sans_nom_2"/><linearGradient id="Dégradé_sans_nom_2-5" x1="222.2" y1="292.01" x2="641.29" y2="223.55" xlink:href="#Dégradé_sans_nom_2"/><linearGradient id="Dégradé_sans_nom_2-6" x1="222.86" y1="296.11" x2="641.96" y2="227.64" xlink:href="#Dégradé_sans_nom_2"/><linearGradient id="Dégradé_sans_nom_2-7" x1="223.5" y1="299.98" x2="642.59" y2="231.51" xlink:href="#Dégradé_sans_nom_2"/><linearGradient id="Dégradé_sans_nom_2-8" x1="224.62" y1="306.87" x2="643.72" y2="238.4" xlink:href="#Dégradé_sans_nom_2"/><linearGradient id="Dégradé_sans_nom_2-9" x1="225.33" y1="311.2" x2="644.43" y2="242.73" xlink:href="#Dégradé_sans_nom_2"/><linearGradient id="Dégradé_sans_nom_2-10" x1="225.94" y1="314.91" x2="645.03" y2="246.45" xlink:href="#Dégradé_sans_nom_2"/><linearGradient id="Dégradé_sans_nom_2-11" x1="226.68" y1="319.48" x2="645.78" y2="251.02" xlink:href="#Dégradé_sans_nom_2"/><linearGradient id="Dégradé_sans_nom_2-12" x1="227.56" y1="324.84" x2="646.65" y2="256.37" xlink:href="#Dégradé_sans_nom_2"/><linearGradient id="Dégradé_sans_nom_2-13" x1="228.41" y1="330.12" x2="647.51" y2="261.65" xlink:href="#Dégradé_sans_nom_2"/><linearGradient id="Dégradé_sans_nom_2-14" x1="229.13" y1="334.49" x2="648.23" y2="266.02" xlink:href="#Dégradé_sans_nom_2"/><linearGradient id="Dégradé_sans_nom_2-15" x1="229.79" y1="338.48" x2="648.88" y2="270.01" xlink:href="#Dégradé_sans_nom_2"/></defs><title>MNP</title><rect class="cls-1" x="228.91" y="104.37" width="384.07" height="130.51"/><path class="cls-2" d="M252.24,300.7h-3.95V270.82q0-.63.42-3.71L241,296.26h-.84l-7.72-29.15q.42,3.11.42,3.71V300.7h-3.95V253.51h3.89l7.66,30.69a11,11,0,0,1,.12,1.36,11.12,11.12,0,0,1,.12-1.36l7.66-30.69h3.89Z"/><path class="cls-3" d="M278.8,300.7h-4.16L273,290.2h-9.38L262,300.7h-4v-.12l8.41-47.18h4.13Zm-6.36-14.2-4.13-25.57-4.16,25.57Z"/><path class="cls-4" d="M302.86,297.35a3.3,3.3,0,0,1-.92,2.41,3.22,3.22,0,0,1-2.4.93H287.67a3.32,3.32,0,0,1-2.43-.93,3.24,3.24,0,0,1-1-2.41v-12h4.19V297h10.19V285.74l-13-15.74a5.47,5.47,0,0,1-1.36-3.59v-9.56a3.23,3.23,0,0,1,1-2.41,3.31,3.31,0,0,1,2.43-.94h11.88a3.21,3.21,0,0,1,2.4.94,3.29,3.29,0,0,1,.92,2.41v11h-4.19V257.22H288.48v10l13.08,15.74a5.4,5.4,0,0,1,1.3,3.53Z"/><path class="cls-5" d="M326.53,257.22h-7.3V300.7H315V257.22h-7.36v-3.71h18.84Z"/><path class="cls-6" d="M346.94,300.7h-15.5V253.51h15.32v3.71H335.63v17.61h10.13v3.77H335.63V297h11.31Z"/><path class="cls-7" d="M373.56,300.7h-4.4l-8.77-25.26.57-.84h7.48V257.22H357.67V300.7h-4.19V253.51h15.8a3.2,3.2,0,0,1,3.35,3.35v17.91q0,3.41-4.58,3.41c-.3,0-.74,0-1.33,0l-1.27,0Q369.52,289.36,373.56,300.7Z"/><path class="cls-8" d="M416.54,300.7h-2.89L401,266v34.7H397.1V253.51h3.14l12.36,34.1v-34.1h3.95Z"/><path class="cls-9" d="M444,297.35a3.24,3.24,0,0,1-1,2.41,3.32,3.32,0,0,1-2.43.93H427.43a3.2,3.2,0,0,1-3.35-3.35V256.86a3.2,3.2,0,0,1,3.35-3.35h13.21a3.31,3.31,0,0,1,2.43.94,3.23,3.23,0,0,1,1,2.41Zm-4.19-.36V257.22H428.27V297Z"/><path class="cls-10" d="M471,292.16a8.2,8.2,0,0,1-2.46,6.14,8.51,8.51,0,0,1-6.19,2.4H451.55V253.51h10.79a8.5,8.5,0,0,1,6.21,2.4A8.23,8.23,0,0,1,471,262Zm-4.19-.42V262.41a5,5,0,0,0-1.46-3.75,5.18,5.18,0,0,0-3.78-1.43h-5.82V297h5.58a5.62,5.62,0,0,0,4-1.4A5,5,0,0,0,466.8,291.74Z"/><path class="cls-11" d="M493.84,300.7h-15.5V253.51h15.32v3.71H482.54v17.61h10.13v3.77H482.54V297h11.31Z"/><path class="cls-12" d="M536.35,278.6A3.25,3.25,0,0,1,533,282H521.85V300.7h-4.19V253.51H533a3.31,3.31,0,0,1,2.43.94,3.23,3.23,0,0,1,1,2.41Zm-4.19-.36v-21H521.85v21Z"/><path class="cls-13" d="M562.91,297.35a3.24,3.24,0,0,1-1,2.41,3.32,3.32,0,0,1-2.43.93H546.33a3.2,3.2,0,0,1-3.35-3.35V256.86a3.2,3.2,0,0,1,3.35-3.35h13.21a3.31,3.31,0,0,1,2.43.94,3.23,3.23,0,0,1,1,2.41Zm-4.19-.36V257.22H547.17V297Z"/><path class="cls-14" d="M590.37,297.35a3.24,3.24,0,0,1-1,2.41,3.32,3.32,0,0,1-2.43.93H573.79a3.2,3.2,0,0,1-3.35-3.35V256.86a3.2,3.2,0,0,1,3.35-3.35H587a3.31,3.31,0,0,1,2.43.94,3.23,3.23,0,0,1,1,2.41Zm-4.19-.36V257.22H574.63V297Z"/><path class="cls-15" d="M613,300.7H597.91V253.51h4.19V297H613Z"/><path class="cls-16" d="M525.31,119.83a28,28,0,0,1-29,47.93"/><polyline class="cls-16" points="496.38 124.26 512.42 119.83 451.93 213.13 430.79 152.63 403.82 198.27 391.43 159.64 345.51 189.26 341.87 164.74 274.81 219.41"/></svg>