<svg id="Calque_1" data-name="Calque 1" xmlns="http://www.w3.org/2000/svg" xmlns:xlink="http://www.w3.org/1999/xlink" viewBox="0 0 841.89 595.28"><defs><style>.cls-1{fill:url(#Dégradé_sans_nom_2);}.cls-2{fill:url(#Dégradé_sans_nom_2-2);}.cls-3{fill:url(#Dégradé_sans_nom_2-3);}.cls-4{fill:url(#Dégradé_sans_nom_2-4);}.cls-5{fill:url(#Dégradé_sans_nom_2-5);}.cls-6{fill:url(#Dégradé_sans_nom_2-6);}.cls-7{fill:url(#Dégradé_sans_nom_2-7);}.cls-8{fill:url(#Dégradé_sans_nom_2-8);}.cls-9{fill:url(#Dégradé_sans_nom_2-9);}.cls-10{fill:url(#Dégradé_sans_nom_2-10);}.cls-11{fill:url(#Dégradé_sans_nom_2-11);}.cls-12{fill:url(#Dégradé_sans_nom_2-12);}.cls-13{fill:url(#Dégradé_sans_nom_2-13);}.cls-14{fill:url(#Dégradé_sans_nom_2-14);}.cls-15{fill:url(#Dégradé_sans_nom_2-15);}.cls-16{fill:url(#Dégradé_sans_nom_2-16);}.cls-17{fill:url(#Dégradé_sans_nom_2-17);}.cls-18{fill:url(#Dégradé_sans_nom_2-18);}</style><linearGradient id="Dégradé_sans_nom_2" x1="278.23" y1="301.21" x2="515.39" y2="472.28" gradientUnits="userSpaceOnUse"><stop offset="0" stop-color="#15ff65"/><stop offset="1" stop-color="aqua"/></linearGradient><linearGradient id="Dégradé_sans_nom_2-2" x1="281.6" y1="296.54" x2="518.76" y2="467.61" xlink:href="#Dégradé_sans_nom_2"/><linearGradient id="Dégradé_sans_nom_2-3" x1="285.77" y1="290.76" x2="522.93" y2="461.83" xlink:href="#Dégradé_sans_nom_2"/><linearGradient id="Dégradé_sans_nom_2-4" x1="289.64" y1="285.4" x2="526.8" y2="456.47" xlink:href="#Dégradé_sans_nom_2"/><linearGradient id="Dégradé_sans_nom_2-5" x1="292.24" y1="281.79" x2="529.4" y2="452.86" xlink:href="#Dégradé_sans_nom_2"/><linearGradient id="Dégradé_sans_nom_2-6" x1="295.49" y1="277.28" x2="532.65" y2="448.35" xlink:href="#Dégradé_sans_nom_2"/><linearGradient id="Dégradé_sans_nom_2-7" x1="301.87" y1="268.44" x2="539.03" y2="439.51" xlink:href="#Dégradé_sans_nom_2"/><linearGradient id="Dégradé_sans_nom_2-8" x1="305.74" y1="263.08" x2="542.9" y2="434.14" xlink:href="#Dégradé_sans_nom_2"/><linearGradient id="Dégradé_sans_nom_2-9" x1="309.22" y1="258.26" x2="546.37" y2="429.33" xlink:href="#Dégradé_sans_nom_2"/><linearGradient id="Dégradé_sans_nom_2-10" x1="313.13" y1="252.83" x2="550.29" y2="423.9" xlink:href="#Dégradé_sans_nom_2"/><linearGradient id="Dégradé_sans_nom_2-11" x1="318.8" y1="244.97" x2="555.96" y2="416.03" xlink:href="#Dégradé_sans_nom_2"/><linearGradient id="Dégradé_sans_nom_2-12" x1="322.65" y1="239.64" x2="559.8" y2="410.71" xlink:href="#Dégradé_sans_nom_2"/><linearGradient id="Dégradé_sans_nom_2-13" x1="326.55" y1="234.23" x2="563.71" y2="405.29" xlink:href="#Dégradé_sans_nom_2"/><linearGradient id="Dégradé_sans_nom_2-14" x1="329.34" y1="230.36" x2="566.5" y2="401.43" xlink:href="#Dégradé_sans_nom_2"/><linearGradient id="Dégradé_sans_nom_2-15" x1="317.19" y1="247.21" x2="554.35" y2="418.27" xlink:href="#Dégradé_sans_nom_2"/><linearGradient id="Dégradé_sans_nom_2-16" x1="336.87" y1="219.92" x2="574.03" y2="390.98" xlink:href="#Dégradé_sans_nom_2"/><linearGradient id="Dégradé_sans_nom_2-17" x1="354.24" y1="195.84" x2="591.4" y2="366.91" xlink:href="#Dégradé_sans_nom_2"/><linearGradient id="Dégradé_sans_nom_2-18" x1="171.76" y1="338.35" x2="657.64" y2="258.97" xlink:href="#Dégradé_sans_nom_2"/></defs><title>MNP</title><path class="cls-1" d="M350.85,359.9h-1.64V347.49q0-.26.18-1.54l-3.21,12.11h-.35l-3.21-12.11q.18,1.29.18,1.54V359.9h-1.64V340.3h1.62L346,353a4.5,4.5,0,0,1,0,.56,4.66,4.66,0,0,1,.05-.56l3.18-12.75h1.62Z"/><path class="cls-2" d="M361.89,359.9h-1.73l-.69-4.36h-3.9l-.69,4.36h-1.68v0l3.49-19.6h1.72Zm-2.64-5.9-1.72-10.62L355.8,354Z"/><path class="cls-3" d="M371.88,358.51a1.37,1.37,0,0,1-.38,1,1.33,1.33,0,0,1-1,.39h-4.93a1.37,1.37,0,0,1-1-.39,1.34,1.34,0,0,1-.39-1v-5h1.74v4.82h4.23v-4.67l-5.41-6.54a2.27,2.27,0,0,1-.56-1.49v-4a1.34,1.34,0,0,1,.39-1,1.38,1.38,0,0,1,1-.39h4.93a1.34,1.34,0,0,1,1,.39,1.37,1.37,0,0,1,.38,1v4.56h-1.74v-4.41h-4.23V346l5.44,6.54a2.24,2.24,0,0,1,.54,1.47Z"/><path class="cls-4" d="M381.72,341.84h-3V359.9h-1.74V341.84h-3.06V340.3h7.83Z"/><path class="cls-5" d="M390.2,359.9h-6.44V340.3h6.36v1.54H385.5v7.31h4.21v1.57H385.5v7.64h4.7Z"/><path class="cls-6" d="M401.26,359.9h-1.83l-3.65-10.5.24-.35h3.11v-7.21h-4.47V359.9h-1.74V340.3h6.56a1.33,1.33,0,0,1,1.39,1.39v7.44q0,1.42-1.9,1.42l-.55,0-.53,0Q399.58,355.19,401.26,359.9Z"/><path class="cls-7" d="M419.12,359.9h-1.2l-5.24-14.42V359.9H411V340.3h1.3l5.14,14.17V340.3h1.64Z"/><path class="cls-8" d="M430.53,358.51a1.34,1.34,0,0,1-.39,1,1.37,1.37,0,0,1-1,.39h-5.49a1.33,1.33,0,0,1-1.39-1.39V341.69a1.33,1.33,0,0,1,1.39-1.39h5.49a1.38,1.38,0,0,1,1,.39,1.34,1.34,0,0,1,.39,1Zm-1.74-.15V341.84H424v16.52Z"/><path class="cls-9" d="M441.74,356.36a3.41,3.41,0,0,1-1,2.55,3.54,3.54,0,0,1-2.57,1h-4.48V340.3h4.48a3.53,3.53,0,0,1,2.58,1,3.42,3.42,0,0,1,1,2.55Zm-1.74-.18V344a2.09,2.09,0,0,0-.61-1.56,2.15,2.15,0,0,0-1.57-.59H435.4v16.52h2.32a2.34,2.34,0,0,0,1.65-.58A2.06,2.06,0,0,0,440,356.18Z"/><path class="cls-10" d="M451.23,359.9h-6.44V340.3h6.36v1.54h-4.62v7.31h4.21v1.57h-4.21v7.64h4.7Z"/><path class="cls-11" d="M468.89,350.72a1.35,1.35,0,0,1-1.4,1.4h-4.62v7.78h-1.74V340.3h6.36a1.38,1.38,0,0,1,1,.39,1.35,1.35,0,0,1,.39,1Zm-1.74-.15v-8.73h-4.28v8.73Z"/><path class="cls-12" d="M479.93,358.51a1.34,1.34,0,0,1-.39,1,1.37,1.37,0,0,1-1,.39H473a1.33,1.33,0,0,1-1.39-1.39V341.69A1.33,1.33,0,0,1,473,340.3h5.49a1.38,1.38,0,0,1,1,.39,1.34,1.34,0,0,1,.39,1Zm-1.74-.15V341.84h-4.8v16.52Z"/><path class="cls-13" d="M491.34,358.51a1.34,1.34,0,0,1-.39,1,1.37,1.37,0,0,1-1,.39h-5.49a1.33,1.33,0,0,1-1.39-1.39V341.69a1.33,1.33,0,0,1,1.39-1.39h5.49a1.38,1.38,0,0,1,1,.39,1.34,1.34,0,0,1,.39,1Zm-1.74-.15V341.84h-4.8v16.52Z"/><path class="cls-14" d="M500.73,359.9h-6.26V340.3h1.74v18.06h4.52Z"/><path class="cls-15" d="M389,329.2h-7.85V269.79q0-1.26.84-7.37l-15.35,58H365l-15.35-58q.84,6.18.84,7.37V329.2h-7.85V235.38h7.73l15.23,61a21.7,21.7,0,0,1,.24,2.7,22.28,22.28,0,0,1,.24-2.7l15.23-61H389Z"/><path class="cls-16" d="M442.68,329.2h-5.75l-25.06-69v69H404V235.38h6.23l24.58,67.8v-67.8h7.85Z"/><path class="cls-17" d="M494.83,285.26a6.47,6.47,0,0,1-6.71,6.71H466V329.2h-8.33V235.38h30.45a6.59,6.59,0,0,1,4.83,1.86,6.43,6.43,0,0,1,1.89,4.8Zm-8.33-.72V242.75H466v41.78Z"/><path class="cls-18" d="M654.67,295.65a10.54,10.54,0,0,0-10.23,8H546.59v-18.9H605V270.16h8.16a10.56,10.56,0,1,0,.19-5H600v14.63H546.59V186.5a14.52,14.52,0,0,0-14.5-14.5H309.8a14.52,14.52,0,0,0-14.5,14.5v94.32H265.12V269.76h-50a10.56,10.56,0,1,0-.19,5h45.15v11.05H295.3v18H187.45a10.54,10.54,0,1,0,0,5H295.3v18.9H256.86v14.63H239.7a10.56,10.56,0,1,0-.19,5h22.35V332.72H295.3v76.06a14.52,14.52,0,0,0,14.5,14.5H532.09a14.52,14.52,0,0,0,14.5-14.5V331.7h30.18v11.05h40a10.56,10.56,0,1,0,.19-5H581.77V326.7H546.59v-18h97.86a10.54,10.54,0,1,0,10.23-13ZM541.59,408.78a9.51,9.51,0,0,1-9.5,9.5H309.8a9.51,9.51,0,0,1-9.5-9.5V186.5a9.51,9.51,0,0,1,9.5-9.5H532.09a9.51,9.51,0,0,1,9.5,9.5Z"/></svg>